# xmcd
#
# Track frame offsets:
#  182
#  17170
#  30100
#  47435
#  63655
#  79112
#  91957
#  109527
#  125342
#  136497
#
# Disc length: 2087 seconds
#
# Revision: 4
# Processed by: cddbd v1.5.1PL2 Copyright (c) Steve Scherf et al.
# Submitted via: Collectorz.com_Music_Collector 6.10
#
DISCID=7408250a
DTITLE=4 Runner - 4 Runner
DYEAR=1995
DGENRE=Country
TTITLE0=A Heart With A 4 Wheel Drive
TTITLE1=Good Lookin'
TTITLE2=Cain's Blood
TTITLE3=The House At The End Of The Road
TTITLE4=Ripples
TTITLE5=You Make the Moonlight
TTITLE6=Oh No
TTITLE7=Let The Good Times Roll
TTITLE8=Home Alone
TTITLE9=Southern Wind
EXTD=
EXTT0=
EXTT1=
EXTT2=
EXTT3=
EXTT4=
EXTT5=
EXTT6=
EXTT7=
EXTT8=
EXTT9=
PLAYORDER=
